<svg version="1.0" xmlns="http://www.w3.org/2000/svg" viewBox="0 0 1500 1500" data-external-asset-id="2713737" width="28.27650875934054" height="28.27650875934054" id="symbols_0" fill="#1498d5"><path d="M291 44v44h85v87H0v942h87v104h89v-104h1148v104h89v-104h87V175h-376V88h85V0H950v88h85v87H465V88h85V0H291v44zm1121 602v382H88V264h1324v382z"></path><path d="M403 401.6c-1.9.2-7.8.9-13 1.5-43.6 5-88.4 24-123.6 52.5-10.7 8.7-29 26.9-37 36.9-45 56.4-62.9 128.1-49.8 199.1 7.4 40.5 26.3 80.4 53.2 112.4 39.7 47.4 99.3 79.3 160.4 85.9 14.2 1.6 43.4 1.3 57.8-.4 53.7-6.7 103.9-31.3 142.5-70 43-42.9 68.1-99 71.4-159.1 3.8-69.8-20.1-134.2-68.4-184.2-38.7-40.1-85.8-64.2-142-72.7-9.6-1.5-44.3-2.8-51.5-1.9zm47.5 91.4c5.5 1.2 13.9 3.4 18.7 5 9.5 3.2 24.8 9.9 24.8 10.9 0 .3-23.7 24.3-52.7 53.3L388.5 615l31.5 31.5 31.5 31.5 53.1-53.1 53-53 4.6 9.8c22.4 47.8 18.3 104.3-10.8 149-22.8 35.1-58.8 60-99 68.4-26.1 5.4-55.9 3.7-81.1-4.6-4.3-1.4-12.7-5-18.8-8-31.3-15.3-55.3-38.8-70.8-69.2-26.2-51.5-22.8-109.7 9.4-158.3 8.5-12.8 29.1-33.4 41.9-41.9 22.1-14.7 45.6-23.3 73-26.5 8.7-1 34.8.4 44.5 2.4zM1057.3 402.1c-76.4 6.8-146.4 50.5-187 116.7-20.8 33.7-33 73-35.2 113-4 71.1 21.3 137.5 71.4 187.7 39 39.1 91.7 64.6 145.7 70.4 12.5 1.4 42.1 1.4 54.6 0 42.8-4.6 85.7-21.9 121.9-49.1 11.5-8.6 33.3-29.9 42.3-41.3 46-58.1 63.4-131.8 48.3-204-7.4-35.8-25.5-74-48.7-103-7.8-9.8-24.4-26.4-35.1-35.4-25.6-21.3-61.2-39.6-93.5-47.9-27.8-7.2-56.5-9.6-84.7-7.1zm51.7 90.8c44.9 9.2 83.7 37.1 106.4 76.7 4.3 7.5 13.6 28.9 13.6 31.3 0 .8-22.8 1.1-75 1.1h-75v89h75c41.3 0 75 .2 75 .4 0 2-6.3 17.1-10.7 25.8-18.4 36.2-52.1 65-90.8 77.6-66.3 21.7-139.4-4.2-178.2-63-30.8-46.7-34.3-105.2-9.2-155.1 13.3-26.5 34.4-49.2 59.9-64.6 16.9-10.2 41.3-18.6 60.8-21 11.5-1.5 37-.5 48.2 1.8z"></path></svg>